<svg xmlns="http://www.w3.org/2000/svg" width="72" height="70" viewBox="0 0 72 70" version="1.1"><path d="M 22.246 2.384 C 22.141 3.779, 22.351 4.050, 22.877 3.199 C 23.937 1.483, 28.231 17.234, 27.338 19.562 C 26.864 20.797, 27.024 21.103, 27.870 20.580 C 28.756 20.033, 28.914 20.592, 28.459 22.666 C 27.970 24.898, 28.076 25.181, 28.956 24 C 29.856 22.792, 30.018 23.056, 29.787 25.357 C 29.547 27.749, 28.733 28.505, 24.801 29.991 C 22.216 30.969, 19.746 31.483, 19.311 31.134 C 18.877 30.785, 19.364 31.502, 20.394 32.726 C 21.424 33.951, 22.735 34.664, 23.306 34.311 C 23.877 33.958, 25.908 35.431, 27.818 37.584 C 29.728 39.738, 30.663 40.618, 29.896 39.539 C 28.668 37.814, 28.891 37.852, 31.750 39.857 C 33.538 41.111, 35 42.386, 35 42.691 C 35 42.995, 34.325 42.685, 33.500 42 C 32.675 41.315, 32 40.982, 32 41.259 C 32 41.536, 33.688 43.024, 35.750 44.566 C 39.085 47.059, 39.279 47.107, 37.500 45 C 35.721 42.893, 35.915 42.941, 39.250 45.434 C 41.313 46.976, 43 48.464, 43 48.741 C 43 49.018, 42.212 48.627, 41.250 47.872 C 39.677 46.639, 39.634 46.671, 40.823 48.191 C 41.551 49.120, 42.716 49.662, 43.413 49.395 C 44.110 49.128, 45.314 49.717, 46.090 50.704 C 47.406 52.380, 47.367 52.400, 45.500 51 C 43.662 49.621, 43.607 49.637, 44.823 51.191 C 45.580 52.158, 46.827 52.620, 47.737 52.271 C 48.848 51.844, 49.092 52.042, 48.546 52.926 C 48.006 53.799, 48.318 54.085, 49.549 53.846 C 50.531 53.656, 51.518 52.825, 51.743 52 C 52.090 50.729, 52.001 50.718, 51.161 51.922 C 50.404 53.007, 49.901 52.298, 49.036 48.922 C 48.412 46.490, 47.479 43.209, 46.962 41.631 C 46.445 40.054, 46.278 37.579, 46.592 36.131 C 47.054 33.996, 46.943 33.783, 46 35 C 45.066 36.206, 44.960 35.944, 45.459 33.666 C 45.823 32.007, 45.693 31.072, 45.145 31.410 C 44.085 32.065, 42.726 29.253, 43.498 28.004 C 43.775 27.555, 45.014 27.410, 46.251 27.681 C 47.915 28.045, 48.140 27.919, 47.117 27.195 C 46.053 26.443, 46.423 26.066, 48.723 25.561 C 50.367 25.200, 52.340 25.038, 53.106 25.202 C 53.873 25.366, 54.500 24.825, 54.500 24 C 54.500 23.175, 53.785 22.616, 52.911 22.757 C 52.037 22.898, 50.462 22.006, 49.411 20.774 C 47.518 18.555, 47.519 18.548, 49.500 20.017 C 51.349 21.388, 51.397 21.369, 50.137 19.761 C 49.387 18.805, 48.421 18.240, 47.991 18.506 C 47.560 18.772, 46.353 18.204, 45.307 17.245 C 44.261 16.285, 44.102 15.950, 44.953 16.500 C 46.286 17.362, 46.317 17.266, 45.177 15.809 C 44.449 14.880, 43.284 14.338, 42.587 14.605 C 41.890 14.872, 40.686 14.283, 39.910 13.296 C 38.596 11.622, 38.636 11.601, 40.500 12.983 C 42.481 14.452, 42.482 14.445, 40.589 12.227 C 39.539 10.995, 38.480 10.187, 38.237 10.430 C 37.993 10.673, 36.828 9.867, 35.647 8.637 C 34.182 7.112, 33.976 7.033, 35 8.390 C 36.359 10.192, 36.199 10.169, 33.293 8.152 C 31.530 6.927, 29.127 4.705, 27.954 3.213 C 25.344 -0.109, 22.465 -0.527, 22.246 2.384 M 25 1.500 C 25 1.775, 25.225 2, 25.500 2 C 25.775 2, 26 1.775, 26 1.500 C 26 1.225, 25.775 1, 25.500 1 C 25.225 1, 25 1.225, 25 1.500 M 29.500 4 C 30.495 5.100, 31.535 6, 31.810 6 C 32.085 6, 31.495 5.100, 30.500 4 C 29.505 2.900, 28.465 2, 28.190 2 C 27.915 2, 28.505 2.900, 29.500 4 M 23 7 C 23 7.733, 23.300 8.033, 23.667 7.667 C 24.033 7.300, 24.033 6.700, 23.667 6.333 C 23.300 5.967, 23 6.267, 23 7 M 24 10 C 24 10.733, 24.300 11.033, 24.667 10.667 C 25.033 10.300, 25.033 9.700, 24.667 9.333 C 24.300 8.967, 24 9.267, 24 10 M 25 13 C 25 13.733, 25.300 14.033, 25.667 13.667 C 26.033 13.300, 26.033 12.700, 25.667 12.333 C 25.300 11.967, 25 12.267, 25 13 M 26 17 C 26 17.733, 26.300 18.033, 26.667 17.667 C 27.033 17.300, 27.033 16.700, 26.667 16.333 C 26.300 15.967, 26 16.267, 26 17 M 53 24 C 53 24.733, 53.300 25.033, 53.667 24.667 C 54.033 24.300, 54.033 23.700, 53.667 23.333 C 53.300 22.967, 53 23.267, 53 24 M 49.333 26.667 C 49.700 27.033, 50.300 27.033, 50.667 26.667 C 51.033 26.300, 50.733 26, 50 26 C 49.267 26, 48.967 26.300, 49.333 26.667 M 27.333 27.667 C 27.700 28.033, 28.300 28.033, 28.667 27.667 C 29.033 27.300, 28.733 27, 28 27 C 27.267 27, 26.967 27.300, 27.333 27.667 M 24.333 28.667 C 24.700 29.033, 25.300 29.033, 25.667 28.667 C 26.033 28.300, 25.733 28, 25 28 C 24.267 28, 23.967 28.300, 24.333 28.667 M 44 29 C 44 29.733, 44.300 30.033, 44.667 29.667 C 45.033 29.300, 45.033 28.700, 44.667 28.333 C 44.300 27.967, 44 28.267, 44 29 M 21.333 29.667 C 21.700 30.033, 22.300 30.033, 22.667 29.667 C 23.033 29.300, 22.733 29, 22 29 C 21.267 29, 20.967 29.300, 21.333 29.667 M 5.605 32.170 C 6.085 32.946, 5.792 33.134, 4.737 32.729 C 3.842 32.386, 2.568 32.833, 1.823 33.751 C 1.095 34.649, 0.950 35.114, 1.500 34.785 C 2.159 34.390, 2.329 40.153, 2 51.680 C 1.725 61.301, 1.675 69.347, 1.890 69.560 C 2.816 70.477, 71.052 69.894, 70.483 68.973 C 70.153 68.438, 70.246 68.001, 70.691 68.001 C 72.017 68.004, 71.078 35.813, 69.700 34.043 C 68.647 32.689, 68.715 32.668, 70.250 33.872 C 71.765 35.060, 72.030 37.345, 72.222 50.872 L 72.444 66.500 72.749 51.108 C 73.008 38.032, 72.810 35.447, 71.433 33.926 C 70.521 32.918, 69.125 32.398, 68.242 32.737 C 67.169 33.149, 66.913 32.950, 67.433 32.108 C 68.002 31.188, 67.093 30.955, 63.847 31.188 L 59.500 31.500 59.500 45.749 L 59.500 59.997 36.500 60 L 13.500 60.003 13.801 45.502 L 14.103 31 9.492 31 C 6.227 31, 5.093 31.341, 5.605 32.170 M 21.500 33 C 21.840 33.550, 22.343 34, 22.618 34 C 22.893 34, 22.840 33.550, 22.500 33 C 22.160 32.450, 21.657 32, 21.382 32 C 21.107 32, 21.160 32.450, 21.500 33 M 60 32.500 C 60 32.775, 60.225 33, 60.500 33 C 60.775 33, 61 32.775, 61 32.500 C 61 32.225, 60.775 32, 60.500 32 C 60.225 32, 60 32.225, 60 32.500 M 24 35.378 C 24 35.585, 24.788 36.373, 25.750 37.128 C 27.336 38.371, 27.371 38.336, 26.128 36.750 C 24.821 35.084, 24 34.555, 24 35.378 M 47 39 C 47 39.733, 47.300 40.033, 47.667 39.667 C 48.033 39.300, 48.033 38.700, 47.667 38.333 C 47.300 37.967, 47 38.267, 47 39 M 48 42 C 48 42.733, 48.300 43.033, 48.667 42.667 C 49.033 42.300, 49.033 41.700, 48.667 41.333 C 48.300 40.967, 48 41.267, 48 42 M 49 45 C 49 45.733, 49.300 46.033, 49.667 45.667 C 50.033 45.300, 50.033 44.700, 49.667 44.333 C 49.300 43.967, 49 44.267, 49 45 M 50 49 C 50 49.733, 50.300 50.033, 50.667 49.667 C 51.033 49.300, 51.033 48.700, 50.667 48.333 C 50.300 47.967, 50 48.267, 50 49 M 2 68.500 C 2 68.775, 2.225 69, 2.500 69 C 2.775 69, 3 68.775, 3 68.500 C 3 68.225, 2.775 68, 2.500 68 C 2.225 68, 2 68.225, 2 68.500" stroke="none" fill="#ff842c" fill-rule="evenodd"/><path d="M 22.693 0.750 C 22.193 1.631, 27.174 19.160, 27.758 18.575 C 27.976 18.357, 27.154 14.651, 25.932 10.339 C 24.709 6.028, 23.700 1.938, 23.688 1.250 C 23.664 -0.170, 23.314 -0.345, 22.693 0.750 M 25 1.500 C 25 1.775, 25.225 2, 25.500 2 C 25.775 2, 26 1.775, 26 1.500 C 26 1.225, 25.775 1, 25.500 1 C 25.225 1, 25 1.225, 25 1.500 M 28.500 3.908 C 30.566 6.292, 36 10.480, 36 9.689 C 36 9.442, 33.862 7.522, 31.250 5.420 C 28.637 3.319, 27.400 2.638, 28.500 3.908 M 37 10.500 C 37 10.775, 37.225 11, 37.500 11 C 37.775 11, 38 10.775, 38 10.500 C 38 10.225, 37.775 10, 37.500 10 C 37.225 10, 37 10.225, 37 10.500 M 39 12.264 C 39 12.477, 42.139 15.092, 45.976 18.076 C 49.813 21.059, 52.963 23.758, 52.976 24.074 C 52.989 24.389, 51.313 25.149, 49.250 25.762 L 45.500 26.876 49 26.333 C 54.481 25.482, 54.943 24.244, 51 20.967 C 46.379 17.126, 39 11.774, 39 12.264 M 28 21 C 28 21.733, 28.300 22.033, 28.667 21.667 C 29.033 21.300, 29.033 20.700, 28.667 20.333 C 28.300 19.967, 28 20.267, 28 21 M 29.116 25.120 C 29.018 27.339, 28.311 27.933, 24.500 29 C 22.025 29.693, 20 30.614, 20 31.046 C 20 31.478, 21.913 33.262, 24.250 35.011 L 28.500 38.189 24.566 34.690 L 20.631 31.191 24.920 29.906 C 29.414 28.559, 30.479 27.313, 29.701 24.308 C 29.379 23.068, 29.196 23.323, 29.116 25.120 M 43.505 27.992 C 43.168 28.538, 43.324 29.757, 43.853 30.702 C 44.642 32.112, 44.786 31.934, 44.657 29.711 C 44.483 26.703, 44.388 26.562, 43.505 27.992 M 4.333 32.667 C 4.700 33.033, 5.300 33.033, 5.667 32.667 C 6.033 32.300, 5.733 32, 5 32 C 4.267 32, 3.967 32.300, 4.333 32.667 M 59.459 33.067 C 59.096 33.653, 59.014 34.348, 59.276 34.610 C 59.538 34.872, 60.019 34.392, 60.345 33.543 C 61.021 31.781, 60.445 31.471, 59.459 33.067 M 68.777 33.557 C 70.901 35.044, 71.010 35.832, 71.223 51.307 L 71.445 67.500 71.749 51.608 C 72.012 37.846, 71.827 35.466, 70.371 33.858 C 69.447 32.836, 68.210 32, 67.623 32 C 67.035 32, 67.555 32.701, 68.777 33.557 M 45.079 34.583 C 45.127 35.748, 45.364 35.985, 45.683 35.188 C 45.972 34.466, 45.936 33.603, 45.604 33.271 C 45.272 32.939, 45.036 33.529, 45.079 34.583 M 1.667 34.667 C 1.300 35.033, 1 42.628, 1 51.544 C 1 65.794, 1.212 67.921, 2.750 69.128 C 4.315 70.355, 4.363 70.325, 3.203 68.840 C 2.229 67.595, 1.979 63.041, 2.203 50.589 C 2.366 41.464, 2.462 33.998, 2.417 33.999 C 2.371 33.999, 2.033 34.300, 1.667 34.667 M 46.073 37.263 C 46.033 37.682, 46.889 41.234, 47.976 45.155 C 50.041 52.607, 51.765 55.977, 50.503 50.096 C 49.670 46.208, 46.183 36.110, 46.073 37.263 M 29 38.364 C 29 38.639, 30.350 39.825, 32 41 C 33.650 42.175, 35 42.911, 35 42.636 C 35 42.361, 33.650 41.175, 32 40 C 30.350 38.825, 29 38.089, 29 38.364 M 36 43.418 C 36 44.115, 48.071 53.267, 48.448 52.856 C 48.627 52.660, 45.899 50.352, 42.387 47.726 C 38.874 45.101, 36 43.162, 36 43.418 M 24.807 59.747 C 31.576 59.921, 42.376 59.920, 48.807 59.746 C 55.238 59.572, 49.700 59.431, 36.500 59.431 C 23.300 59.432, 18.038 59.574, 24.807 59.747 M 69.405 69.155 C 68.962 69.870, 69.130 70.038, 69.845 69.595 C 70.480 69.203, 71 68.684, 71 68.441 C 71 67.607, 70.117 68.002, 69.405 69.155" stroke="none" fill="#fc842c" fill-rule="evenodd"/></svg>